<?xml version="1.0" encoding="UTF-8" standalone="no"?>
<!DOCTYPE svg PUBLIC "-//W3C//DTD SVG 1.1//EN"
 "http://www.w3.org/Graphics/SVG/1.1/DTD/svg11.dtd">
<!-- Generated by graphviz version 2.28.0 (20110507.0327)
 -->
<!-- Title: _anonymous_8 Pages: 1 -->
<svg width="1052pt" height="386pt"
 viewBox="0.00 0.00 1052.00 386.00" xmlns="http://www.w3.org/2000/svg" xmlns:xlink="http://www.w3.org/1999/xlink">
<g id="graph1" class="graph" transform="scale(1 1) rotate(0) translate(4 382)">
<title>_anonymous_8</title>
<polygon fill="white" stroke="white" points="-4,5 -4,-382 1049,-382 1049,5 -4,5"/>
<!-- agg_mode_change -->
<g id="node1" class="node"><title>agg_mode_change</title>
<polygon fill="none" stroke="black" points="345,-298.5 289,-298.5 289,-245.5 345,-245.5 345,-298.5"/>
<text text-anchor="middle" x="317" y="-283.3" font-family="Calibri,sans serif" font-size="14.00">agg</text>
<text text-anchor="middle" x="317" y="-268.3" font-family="Calibri,sans serif" font-size="14.00">mode</text>
<text text-anchor="middle" x="317" y="-253.3" font-family="Calibri,sans serif" font-size="14.00">change</text>
</g>
<!-- dis_mode_change -->
<g id="node5" class="node"><title>dis_mode_change</title>
<polygon fill="none" stroke="black" points="122,-194.5 66,-194.5 66,-141.5 122,-141.5 122,-194.5"/>
<text text-anchor="middle" x="94" y="-179.3" font-family="Calibri,sans serif" font-size="14.00">dis</text>
<text text-anchor="middle" x="94" y="-164.3" font-family="Calibri,sans serif" font-size="14.00">mode</text>
<text text-anchor="middle" x="94" y="-149.3" font-family="Calibri,sans serif" font-size="14.00">change</text>
</g>
<!-- agg_mode_change&#45;&#45;dis_mode_change -->
<g id="edge10" class="edge"><title>agg_mode_change&#45;&#45;dis_mode_change</title>
<path fill="none" stroke="black" d="M288.757,-258.082C245.862,-238.461 164.772,-201.371 122.014,-181.813"/>
</g>
<!-- agg_non_work -->
<g id="node2" class="node"><title>agg_non_work</title>
<polygon fill="none" stroke="black" points="640,-298.5 586,-298.5 586,-245.5 640,-245.5 640,-298.5"/>
<text text-anchor="middle" x="613" y="-283.3" font-family="Calibri,sans serif" font-size="14.00">agg</text>
<text text-anchor="middle" x="613" y="-268.3" font-family="Calibri,sans serif" font-size="14.00">non</text>
<text text-anchor="middle" x="613" y="-253.3" font-family="Calibri,sans serif" font-size="14.00">work</text>
</g>
<!-- dis_discretionary -->
<g id="node6" class="node"><title>dis_discretionary</title>
<polygon fill="none" stroke="black" points="280.25,-187 191.75,-187 191.75,-149 280.25,-149 280.25,-187"/>
<text text-anchor="middle" x="236" y="-171.8" font-family="Calibri,sans serif" font-size="14.00">dis</text>
<text text-anchor="middle" x="236" y="-156.8" font-family="Calibri,sans serif" font-size="14.00">discretionary</text>
</g>
<!-- agg_non_work&#45;&#45;dis_discretionary -->
<g id="edge12" class="edge"><title>agg_non_work&#45;&#45;dis_discretionary</title>
<path fill="none" stroke="black" d="M585.902,-264.015C538.438,-251.739 437.199,-225.379 352,-202 328.275,-195.49 301.891,-188.004 280.288,-181.809"/>
</g>
<!-- dis_eating_out -->
<g id="node7" class="node"><title>dis_eating_out</title>
<polygon fill="none" stroke="black" points="415,-194.5 361,-194.5 361,-141.5 415,-141.5 415,-194.5"/>
<text text-anchor="middle" x="388" y="-179.3" font-family="Calibri,sans serif" font-size="14.00">dis</text>
<text text-anchor="middle" x="388" y="-164.3" font-family="Calibri,sans serif" font-size="14.00">eating</text>
<text text-anchor="middle" x="388" y="-149.3" font-family="Calibri,sans serif" font-size="14.00">out</text>
</g>
<!-- agg_non_work&#45;&#45;dis_eating_out -->
<g id="edge14" class="edge"><title>agg_non_work&#45;&#45;dis_eating_out</title>
<path fill="none" stroke="black" d="M585.86,-258.696C542.614,-239.092 458.543,-200.98 415.237,-181.347"/>
</g>
<!-- dis_escorting -->
<g id="node8" class="node"><title>dis_escorting</title>
<polygon fill="none" stroke="black" points="552,-187 484,-187 484,-149 552,-149 552,-187"/>
<text text-anchor="middle" x="518" y="-171.8" font-family="Calibri,sans serif" font-size="14.00">dis</text>
<text text-anchor="middle" x="518" y="-156.8" font-family="Calibri,sans serif" font-size="14.00">escorting</text>
</g>
<!-- agg_non_work&#45;&#45;dis_escorting -->
<g id="edge16" class="edge"><title>agg_non_work&#45;&#45;dis_escorting</title>
<path fill="none" stroke="black" d="M589.027,-245.261C572.098,-227.084 549.833,-203.179 534.779,-187.015"/>
</g>
<!-- dis_maintenance -->
<g id="node9" class="node"><title>dis_maintenance</title>
<polygon fill="none" stroke="black" points="655.25,-187 570.75,-187 570.75,-149 655.25,-149 655.25,-187"/>
<text text-anchor="middle" x="613" y="-171.8" font-family="Calibri,sans serif" font-size="14.00">dis</text>
<text text-anchor="middle" x="613" y="-156.8" font-family="Calibri,sans serif" font-size="14.00">maintenance</text>
</g>
<!-- agg_non_work&#45;&#45;dis_maintenance -->
<g id="edge18" class="edge"><title>agg_non_work&#45;&#45;dis_maintenance</title>
<path fill="none" stroke="black" d="M613,-245.261C613,-227.084 613,-203.179 613,-187.015"/>
</g>
<!-- dis_shopping -->
<g id="node10" class="node"><title>dis_shopping</title>
<polygon fill="none" stroke="black" points="742,-187 674,-187 674,-149 742,-149 742,-187"/>
<text text-anchor="middle" x="708" y="-171.8" font-family="Calibri,sans serif" font-size="14.00">dis</text>
<text text-anchor="middle" x="708" y="-156.8" font-family="Calibri,sans serif" font-size="14.00">shopping</text>
</g>
<!-- agg_non_work&#45;&#45;dis_shopping -->
<g id="edge20" class="edge"><title>agg_non_work&#45;&#45;dis_shopping</title>
<path fill="none" stroke="black" d="M636.973,-245.261C653.902,-227.084 676.167,-203.179 691.221,-187.015"/>
</g>
<!-- dis_visiting -->
<g id="node11" class="node"><title>dis_visiting</title>
<polygon fill="none" stroke="black" points="816,-187 760,-187 760,-149 816,-149 816,-187"/>
<text text-anchor="middle" x="788" y="-171.8" font-family="Calibri,sans serif" font-size="14.00">dis</text>
<text text-anchor="middle" x="788" y="-156.8" font-family="Calibri,sans serif" font-size="14.00">visiting</text>
</g>
<!-- agg_non_work&#45;&#45;dis_visiting -->
<g id="edge22" class="edge"><title>agg_non_work&#45;&#45;dis_visiting</title>
<path fill="none" stroke="black" d="M640.098,-260.001C668.8,-247.78 714.866,-226.508 751,-202 757.411,-197.652 763.887,-192.282 769.591,-187.147"/>
</g>
<!-- agg_university_or_school -->
<g id="node3" class="node"><title>agg_university_or_school</title>
<polygon fill="none" stroke="black" points="816,-306 746,-306 746,-238 816,-238 816,-306"/>
<text text-anchor="middle" x="781" y="-290.8" font-family="Calibri,sans serif" font-size="14.00">agg</text>
<text text-anchor="middle" x="781" y="-275.8" font-family="Calibri,sans serif" font-size="14.00">university</text>
<text text-anchor="middle" x="781" y="-260.8" font-family="Calibri,sans serif" font-size="14.00">or</text>
<text text-anchor="middle" x="781" y="-245.8" font-family="Calibri,sans serif" font-size="14.00">school</text>
</g>
<!-- dis_university_or_school -->
<g id="node12" class="node"><title>dis_university_or_school</title>
<polygon fill="none" stroke="black" points="904,-202 834,-202 834,-134 904,-134 904,-202"/>
<text text-anchor="middle" x="869" y="-186.8" font-family="Calibri,sans serif" font-size="14.00">dis</text>
<text text-anchor="middle" x="869" y="-171.8" font-family="Calibri,sans serif" font-size="14.00">university</text>
<text text-anchor="middle" x="869" y="-156.8" font-family="Calibri,sans serif" font-size="14.00">or</text>
<text text-anchor="middle" x="869" y="-141.8" font-family="Calibri,sans serif" font-size="14.00">school</text>
</g>
<!-- agg_university_or_school&#45;&#45;dis_university_or_school -->
<g id="edge24" class="edge"><title>agg_university_or_school&#45;&#45;dis_university_or_school</title>
<path fill="none" stroke="black" d="M809.571,-237.884C819.408,-226.482 830.422,-213.715 840.271,-202.299"/>
</g>
<!-- agg_work -->
<g id="node4" class="node"><title>agg_work</title>
<polygon fill="none" stroke="black" points="932,-291 878,-291 878,-253 932,-253 932,-291"/>
<text text-anchor="middle" x="905" y="-275.8" font-family="Calibri,sans serif" font-size="14.00">agg</text>
<text text-anchor="middle" x="905" y="-260.8" font-family="Calibri,sans serif" font-size="14.00">work</text>
</g>
<!-- dis_work -->
<g id="node13" class="node"><title>dis_work</title>
<polygon fill="none" stroke="black" points="976,-187 922,-187 922,-149 976,-149 976,-187"/>
<text text-anchor="middle" x="949" y="-171.8" font-family="Calibri,sans serif" font-size="14.00">dis</text>
<text text-anchor="middle" x="949" y="-156.8" font-family="Calibri,sans serif" font-size="14.00">work</text>
</g>
<!-- agg_work&#45;&#45;dis_work -->
<g id="edge26" class="edge"><title>agg_work&#45;&#45;dis_work</title>
<path fill="none" stroke="black" d="M912.866,-252.764C920.875,-234.198 933.218,-205.586 941.202,-187.078"/>
</g>
<!-- change_travel_mode_transfer -->
<g id="node14" class="node"><title>change_travel_mode_transfer</title>
<polygon fill="none" stroke="black" stroke-width="2" points="86,-75.5 0,-75.5 0,-22.5 86,-22.5 86,-75.5"/>
<text text-anchor="middle" x="43" y="-60.3" font-family="Calibri,sans serif" font-size="14.00">change</text>
<text text-anchor="middle" x="43" y="-45.3" font-family="Calibri,sans serif" font-size="14.00">travel_mode</text>
<text text-anchor="middle" x="43" y="-30.3" font-family="Calibri,sans serif" font-size="14.00">transfer</text>
</g>
<!-- dis_mode_change&#45;&#45;change_travel_mode_transfer -->
<g id="edge40" class="edge"><title>dis_mode_change&#45;&#45;change_travel_mode_transfer</title>
<path fill="none" stroke="black" d="M82.8078,-141.324C74.3046,-121.816 62.6629,-95.109 54.1661,-75.6163"/>
</g>
<!-- civic_or_religious_activities -->
<g id="node15" class="node"><title>civic_or_religious_activities</title>
<polygon fill="none" stroke="black" stroke-width="2" points="169.25,-83 104.75,-83 104.75,-15 169.25,-15 169.25,-83"/>
<text text-anchor="middle" x="137" y="-67.8" font-family="Calibri,sans serif" font-size="14.00">civic</text>
<text text-anchor="middle" x="137" y="-52.8" font-family="Calibri,sans serif" font-size="14.00">or</text>
<text text-anchor="middle" x="137" y="-37.8" font-family="Calibri,sans serif" font-size="14.00">religious</text>
<text text-anchor="middle" x="137" y="-22.8" font-family="Calibri,sans serif" font-size="14.00">activities</text>
</g>
<!-- dis_discretionary&#45;&#45;civic_or_religious_activities -->
<g id="edge28" class="edge"><title>dis_discretionary&#45;&#45;civic_or_religious_activities</title>
<path fill="none" stroke="black" d="M220.748,-148.975C205.995,-131.54 183.281,-104.696 165.229,-83.3611"/>
</g>
<!-- entertainement -->
<g id="node16" class="node"><title>entertainement</title>
<polygon fill="none" stroke="black" stroke-width="2" points="284,-67 188,-67 188,-31 284,-31 284,-67"/>
<text text-anchor="middle" x="236" y="-45.3" font-family="Calibri,sans serif" font-size="14.00">entertainement</text>
</g>
<!-- dis_discretionary&#45;&#45;entertainement -->
<g id="edge30" class="edge"><title>dis_discretionary&#45;&#45;entertainement</title>
<path fill="none" stroke="black" d="M236,-148.975C236,-126.668 236,-88.9607 236,-67.093"/>
</g>
<!-- eat_meal_out_at_restaurant_diner -->
<g id="node17" class="node"><title>eat_meal_out_at_restaurant_diner</title>
<polygon fill="none" stroke="black" stroke-width="2" points="373.25,-98 302.75,-98 302.75,-0 373.25,-0 373.25,-98"/>
<text text-anchor="middle" x="338" y="-82.8" font-family="Calibri,sans serif" font-size="14.00">eat</text>
<text text-anchor="middle" x="338" y="-67.8" font-family="Calibri,sans serif" font-size="14.00">meal</text>
<text text-anchor="middle" x="338" y="-52.8" font-family="Calibri,sans serif" font-size="14.00">out</text>
<text text-anchor="middle" x="338" y="-37.8" font-family="Calibri,sans serif" font-size="14.00">at</text>
<text text-anchor="middle" x="338" y="-22.8" font-family="Calibri,sans serif" font-size="14.00">restaurant</text>
<text text-anchor="middle" x="338" y="-7.8" font-family="Calibri,sans serif" font-size="14.00">diner</text>
</g>
<!-- dis_eating_out&#45;&#45;eat_meal_out_at_restaurant_diner -->
<g id="edge32" class="edge"><title>dis_eating_out&#45;&#45;eat_meal_out_at_restaurant_diner</title>
<path fill="none" stroke="black" d="M377.027,-141.324C371.623,-128.678 364.925,-113.006 358.613,-98.2348"/>
</g>
<!-- dropped_off_passenger_from_car -->
<g id="node18" class="node"><title>dropped_off_passenger_from_car</title>
<polygon fill="none" stroke="black" stroke-width="2" points="464,-90.5 392,-90.5 392,-7.5 464,-7.5 464,-90.5"/>
<text text-anchor="middle" x="428" y="-75.3" font-family="Calibri,sans serif" font-size="14.00">dropped</text>
<text text-anchor="middle" x="428" y="-60.3" font-family="Calibri,sans serif" font-size="14.00">off</text>
<text text-anchor="middle" x="428" y="-45.3" font-family="Calibri,sans serif" font-size="14.00">passenger</text>
<text text-anchor="middle" x="428" y="-30.3" font-family="Calibri,sans serif" font-size="14.00">from</text>
<text text-anchor="middle" x="428" y="-15.3" font-family="Calibri,sans serif" font-size="14.00">car</text>
</g>
<!-- dis_escorting&#45;&#45;dropped_off_passenger_from_car -->
<g id="edge34" class="edge"><title>dis_escorting&#45;&#45;dropped_off_passenger_from_car</title>
<path fill="none" stroke="black" d="M504.135,-148.975C492.202,-133.463 474.541,-110.503 459.232,-90.6015"/>
</g>
<!-- picked_up_passenger_from_car -->
<g id="node19" class="node"><title>picked_up_passenger_from_car</title>
<polygon fill="none" stroke="black" stroke-width="2" points="554,-90.5 482,-90.5 482,-7.5 554,-7.5 554,-90.5"/>
<text text-anchor="middle" x="518" y="-75.3" font-family="Calibri,sans serif" font-size="14.00">picked</text>
<text text-anchor="middle" x="518" y="-60.3" font-family="Calibri,sans serif" font-size="14.00">up</text>
<text text-anchor="middle" x="518" y="-45.3" font-family="Calibri,sans serif" font-size="14.00">passenger</text>
<text text-anchor="middle" x="518" y="-30.3" font-family="Calibri,sans serif" font-size="14.00">from</text>
<text text-anchor="middle" x="518" y="-15.3" font-family="Calibri,sans serif" font-size="14.00">car</text>
</g>
<!-- dis_escorting&#45;&#45;picked_up_passenger_from_car -->
<g id="edge36" class="edge"><title>dis_escorting&#45;&#45;picked_up_passenger_from_car</title>
<path fill="none" stroke="black" d="M518,-148.975C518,-133.463 518,-110.503 518,-90.6015"/>
</g>
<!-- maintenance -->
<g id="node20" class="node"><title>maintenance</title>
<polygon fill="none" stroke="black" stroke-width="2" points="657.25,-67 572.75,-67 572.75,-31 657.25,-31 657.25,-67"/>
<text text-anchor="middle" x="615" y="-45.3" font-family="Calibri,sans serif" font-size="14.00">maintenance</text>
</g>
<!-- dis_maintenance&#45;&#45;maintenance -->
<g id="edge38" class="edge"><title>dis_maintenance&#45;&#45;maintenance</title>
<path fill="none" stroke="black" d="M613.308,-148.975C613.689,-126.668 614.334,-88.9607 614.708,-67.093"/>
</g>
<!-- shopping -->
<g id="node21" class="node"><title>shopping</title>
<polygon fill="none" stroke="black" stroke-width="2" points="744,-67 676,-67 676,-31 744,-31 744,-67"/>
<text text-anchor="middle" x="710" y="-45.3" font-family="Calibri,sans serif" font-size="14.00">shopping</text>
</g>
<!-- dis_shopping&#45;&#45;shopping -->
<g id="edge42" class="edge"><title>dis_shopping&#45;&#45;shopping</title>
<path fill="none" stroke="black" d="M708.308,-148.975C708.689,-126.668 709.334,-88.9607 709.708,-67.093"/>
</g>
<!-- social_visit_friends_relatives -->
<g id="node22" class="node"><title>social_visit_friends_relatives</title>
<polygon fill="none" stroke="black" stroke-width="2" points="824,-83 762,-83 762,-15 824,-15 824,-83"/>
<text text-anchor="middle" x="793" y="-67.8" font-family="Calibri,sans serif" font-size="14.00">social</text>
<text text-anchor="middle" x="793" y="-52.8" font-family="Calibri,sans serif" font-size="14.00">visit</text>
<text text-anchor="middle" x="793" y="-37.8" font-family="Calibri,sans serif" font-size="14.00">friends</text>
<text text-anchor="middle" x="793" y="-22.8" font-family="Calibri,sans serif" font-size="14.00">relatives</text>
</g>
<!-- dis_visiting&#45;&#45;social_visit_friends_relatives -->
<g id="edge46" class="edge"><title>dis_visiting&#45;&#45;social_visit_friends_relatives</title>
<path fill="none" stroke="black" d="M788.77,-148.975C789.515,-131.54 790.663,-104.696 791.574,-83.3611"/>
</g>
<!-- school -->
<g id="node23" class="node"><title>school</title>
<polygon fill="none" stroke="black" stroke-width="2" points="896,-67 842,-67 842,-31 896,-31 896,-67"/>
<text text-anchor="middle" x="869" y="-45.3" font-family="Calibri,sans serif" font-size="14.00">school</text>
</g>
<!-- dis_university_or_school&#45;&#45;school -->
<g id="edge44" class="edge"><title>dis_university_or_school&#45;&#45;school</title>
<path fill="none" stroke="black" d="M869,-133.785C869,-112.031 869,-84.5008 869,-67.0637"/>
</g>
<!-- work_doing_my_job -->
<g id="node24" class="node"><title>work_doing_my_job</title>
<polygon fill="none" stroke="black" stroke-width="2" points="972,-83 918,-83 918,-15 972,-15 972,-83"/>
<text text-anchor="middle" x="945" y="-67.8" font-family="Calibri,sans serif" font-size="14.00">work</text>
<text text-anchor="middle" x="945" y="-52.8" font-family="Calibri,sans serif" font-size="14.00">doing</text>
<text text-anchor="middle" x="945" y="-37.8" font-family="Calibri,sans serif" font-size="14.00">my</text>
<text text-anchor="middle" x="945" y="-22.8" font-family="Calibri,sans serif" font-size="14.00">job</text>
</g>
<!-- dis_work&#45;&#45;work_doing_my_job -->
<g id="edge48" class="edge"><title>dis_work&#45;&#45;work_doing_my_job</title>
<path fill="none" stroke="black" d="M948.384,-148.975C947.788,-131.54 946.87,-104.696 946.141,-83.3611"/>
</g>
<!-- work_related -->
<g id="node25" class="node"><title>work_related</title>
<polygon fill="none" stroke="black" stroke-width="2" points="1044,-68 990,-68 990,-30 1044,-30 1044,-68"/>
<text text-anchor="middle" x="1017" y="-52.8" font-family="Calibri,sans serif" font-size="14.00">work</text>
<text text-anchor="middle" x="1017" y="-37.8" font-family="Calibri,sans serif" font-size="14.00">related</text>
</g>
<!-- dis_work&#45;&#45;work_related -->
<g id="edge50" class="edge"><title>dis_work&#45;&#45;work_related</title>
<path fill="none" stroke="black" d="M959.476,-148.975C972.217,-127.053 993.603,-90.2564 1006.4,-68.2381"/>
</g>
<!-- ROOT -->
<g id="node26" class="node"><title>ROOT</title>
<ellipse fill="none" stroke="black" cx="697" cy="-360" rx="36.096" ry="18"/>
<text text-anchor="middle" x="697" y="-356.3" font-family="Calibri,sans serif" font-size="14.00">ROOT</text>
</g>
<!-- ROOT&#45;&#45;agg_mode_change -->
<g id="edge2" class="edge"><title>ROOT&#45;&#45;agg_mode_change</title>
<path fill="none" stroke="black" d="M664.601,-351.668C591.373,-335.095 414.122,-294.98 345.135,-279.367"/>
</g>
<!-- ROOT&#45;&#45;agg_non_work -->
<g id="edge4" class="edge"><title>ROOT&#45;&#45;agg_non_work</title>
<path fill="none" stroke="black" d="M681.593,-343.226C669.468,-330.813 652.32,-313.256 638.203,-298.803"/>
</g>
<!-- ROOT&#45;&#45;agg_university_or_school -->
<g id="edge6" class="edge"><title>ROOT&#45;&#45;agg_university_or_school</title>
<path fill="none" stroke="black" d="M712.407,-343.226C722.543,-332.849 736.189,-318.878 748.64,-306.131"/>
</g>
<!-- ROOT&#45;&#45;agg_work -->
<g id="edge8" class="edge"><title>ROOT&#45;&#45;agg_work</title>
<path fill="none" stroke="black" d="M724.192,-347.757C764.055,-331.275 837.934,-300.729 877.801,-284.246"/>
</g>
</g>
</svg>
